<svg width="12" height="7" viewBox="0 0 12 7" fill="none" xmlns="http://www.w3.org/2000/svg">
<path fill-rule="evenodd" clip-rule="evenodd" d="M0.566932 0.873668C0.203721 0.983196 0.00368641 1.25031 0.00368641 1.62575C0.00368641 1.99617 -0.219329 1.76247 2.80384 4.56042C5.8424 7.37259 5.59487 7.17045 5.9999 7.17045C6.4054 7.17045 6.15625 7.37414 9.2055 4.54947C12.2234 1.75389 11.9961 1.99197 11.9961 1.62575C11.9961 1.1497 11.6823 0.855335 11.1747 0.855335C10.7634 0.855335 10.9993 0.666779 8.3409 3.12075L5.9999 5.2817L3.6589 3.12075C1.03042 0.69439 1.23745 0.862307 0.860271 0.851223C0.742214 0.847751 0.622476 0.856918 0.566932 0.873668Z" fill="white"/>
</svg>
