<svg width="20" height="20" viewBox="0 0 20 20" fill="none" xmlns="http://www.w3.org/2000/svg">
<path fill-rule="evenodd" clip-rule="evenodd" d="M8.93391 0.877287C1.90206 1.76964 -1.58209 9.85979 2.63551 15.5019C6.75251 21.0095 15.2115 20.2409 18.2626 14.082C21.4808 7.58594 16.099 -0.0319626 8.93391 0.877287ZM11.5052 2.67029C18.4623 4.15484 19.6937 13.5339 13.3503 16.7233C7.12146 19.8551 0.364013 13.3568 3.18311 6.94604C4.56206 3.81024 8.16721 1.95799 11.5052 2.67029ZM9.69541 5.86129C9.20156 6.05944 9.16271 6.19854 9.14731 7.82224L9.13446 9.17969H7.77291C6.32396 9.17969 6.29931 9.18259 6.07246 9.38179C5.61071 9.78724 5.71481 10.5285 6.26956 10.7853C6.41201 10.8513 6.54526 10.8577 7.78011 10.8585L9.13446 10.8594L9.14731 12.2168C9.15901 13.4523 9.16671 13.5865 9.23311 13.7109C9.55396 14.3124 10.3395 14.3777 10.7209 13.8346L10.8399 13.6652L10.851 12.2637L10.8622 10.8622L12.2602 10.851L13.6582 10.8398L13.8191 10.7333C14.359 10.3758 14.3158 9.54834 13.7418 9.25399C13.6075 9.18514 13.4967 9.17969 12.2281 9.17969H10.8594L10.8585 7.82224C10.8576 6.32424 10.8515 6.28219 10.6007 6.04699C10.3843 5.84409 9.95681 5.75639 9.69541 5.86129Z" fill="white"/>
</svg>
