<svg width="19" height="19" viewBox="0 0 19 19" fill="none" xmlns="http://www.w3.org/2000/svg">
<g clip-path="url(#clip0_27_920)">
<path d="M0.527037 0.0408211C0.352623 0.0927753 0.122545 0.333986 0.0705921 0.526955C0.014928 0.734768 0.0520374 1.42129 0.152233 1.98907C0.389733 3.36211 1.05399 4.69434 1.99657 5.68516C2.15243 5.85215 3.10243 6.7168 4.10809 7.61113C6.00438 9.30332 6.16024 9.45918 6.36805 9.92676C6.59813 10.45 6.58329 10.1865 6.60555 14.5283L6.62411 18.499L6.70946 18.6363C6.88016 18.9109 7.21415 19.052 7.51473 18.9703C7.62977 18.9406 8.40536 18.4434 9.95653 17.408C11.2034 16.5768 12.2573 15.8605 12.2907 15.8234C12.4688 15.6193 12.4688 15.6305 12.4688 13.1107C12.4688 10.5279 12.4725 10.4908 12.6841 9.98613C12.903 9.47031 13.0255 9.34043 14.9663 7.61113C15.972 6.7168 16.922 5.85215 17.0778 5.68516C17.9759 4.72774 18.5845 3.56621 18.8739 2.25254C18.9481 1.92969 18.9741 1.68477 18.989 1.16153L19.0112 0.482424L18.9147 0.337696C18.8628 0.259768 18.7552 0.155861 18.6772 0.107618L18.5362 0.0185566L9.59286 0.0111351C4.01903 0.0074234 0.604967 0.0185566 0.527037 0.0408211ZM17.4526 1.78867C17.3339 2.46035 16.9665 3.36582 16.5768 3.94102C16.2169 4.4791 15.9163 4.77969 14.1202 6.37539C13.122 7.26231 12.2202 8.075 12.12 8.17891C11.7266 8.59453 11.3815 9.17344 11.1923 9.7375C10.9993 10.3201 10.9845 10.5242 10.9845 12.825V14.9439L9.55575 15.8939C8.76903 16.4209 8.11962 16.8477 8.10848 16.8477C8.10106 16.8477 8.08622 15.4004 8.0788 13.6266C8.06395 10.1383 8.07508 10.3016 7.85614 9.66699C7.6743 9.14004 7.33661 8.5834 6.95067 8.17891C6.85419 8.075 5.95614 7.26231 4.95419 6.37539C3.85204 5.3957 3.03934 4.64238 2.89462 4.46797C2.21922 3.65527 1.74794 2.65332 1.60321 1.6959L1.56981 1.48438H9.53719H17.5046L17.4526 1.78867Z" fill="white"/>
</g>
<defs>
<clipPath id="clip0_27_920">
<rect width="19" height="19" fill="white"/>
</clipPath>
</defs>
</svg>
