<svg width="22" height="21" viewBox="0 0 22 21" fill="none" xmlns="http://www.w3.org/2000/svg">
<g filter="url(#filter0_d_27_966)">
<path fill-rule="evenodd" clip-rule="evenodd" d="M7.78806 19.1505C6.93985 18.9985 6.16952 18.4328 5.81862 17.7042L5.65049 17.3553L4.03206 17.3407L2.41363 17.3262L2.22773 17.1955C1.64044 16.7826 1.69351 15.9058 2.32541 15.5834C2.47836 15.5053 2.58952 15.5 4.05675 15.5H5.62469L5.80674 15.15C6.84454 13.1552 9.6557 13.1552 10.6935 15.15L10.8755 15.5H15.1935C19.4054 15.5 19.5154 15.5021 19.6774 15.5847C20.3045 15.9046 20.3564 16.785 19.7725 17.1955L19.5865 17.3262L15.2181 17.34L10.8497 17.3538L10.6837 17.6994C10.192 18.7227 8.92997 19.3552 7.78806 19.1505ZM8.6184 17.2234C9.09129 17.0086 9.28797 16.3762 9.00923 15.9669C8.62373 15.4009 7.8765 15.4009 7.49101 15.9669C7.12135 16.5097 7.57202 17.3028 8.25012 17.3028C8.35649 17.3028 8.5222 17.267 8.6184 17.2234ZM13.082 12.69C12.3148 12.5036 11.5374 11.8591 11.2506 11.1717L11.1568 10.9469L6.81385 10.9354L2.47083 10.9238L2.26788 10.8045C1.66783 10.4518 1.66783 9.54818 2.26788 9.19547L2.47083 9.07617L6.81066 9.06391L11.1505 9.05164L11.2877 8.76311C12.245 6.74896 15.2522 6.74835 16.2126 8.76218L16.3497 9.04977L17.9396 9.06297L19.5294 9.07617L19.7324 9.19547C20.3324 9.54818 20.3324 10.4518 19.7324 10.8045L19.5294 10.9238L17.9315 10.9365L16.3336 10.9492L16.2857 11.0946C15.9134 12.2226 14.3542 12.999 13.082 12.69ZM14.2074 10.7506C14.7778 10.4164 14.7682 9.57805 14.19 9.23919C13.4189 8.78726 12.5362 9.66682 12.9878 10.4373C13.2454 10.8769 13.7644 11.0102 14.2074 10.7506ZM7.71255 6.30676C6.89074 6.13004 6.19702 5.60017 5.80768 4.85173L5.62469 4.5H4.05675C2.58952 4.5 2.47836 4.49467 2.32541 4.41663C1.69351 4.09422 1.64044 3.21746 2.22773 2.80452L2.41363 2.67384L4.03206 2.65927L5.65049 2.64474L5.81521 2.30259C6.75863 0.342609 9.74342 0.34305 10.685 2.3033L10.8497 2.64618L15.2181 2.65998L19.5865 2.67384L19.7725 2.80452C20.3598 3.21741 20.3067 4.09422 19.6748 4.41663C19.5162 4.49753 19.3828 4.5 15.191 4.5H10.8705L10.7495 4.74981C10.194 5.89673 8.89719 6.56152 7.71255 6.30676ZM8.7526 4.3014C9.2009 3.9406 9.26921 3.43344 8.92563 3.0166C8.32563 2.28873 7.14082 2.91501 7.39382 3.82631C7.54914 4.38555 8.31518 4.6534 8.7526 4.3014Z" fill="white"/>
</g>
<defs>
<filter id="filter0_d_27_966" x="-2.18237" y="0.832855" width="26.365" height="26.356" filterUnits="userSpaceOnUse" color-interpolation-filters="sRGB">
<feFlood flood-opacity="0" result="BackgroundImageFix"/>
<feColorMatrix in="SourceAlpha" type="matrix" values="0 0 0 0 0 0 0 0 0 0 0 0 0 0 0 0 0 0 127 0" result="hardAlpha"/>
<feOffset dy="4"/>
<feGaussianBlur stdDeviation="2"/>
<feComposite in2="hardAlpha" operator="out"/>
<feColorMatrix type="matrix" values="0 0 0 0 0 0 0 0 0 0 0 0 0 0 0 0 0 0 0.25 0"/>
<feBlend mode="normal" in2="BackgroundImageFix" result="effect1_dropShadow_27_966"/>
<feBlend mode="normal" in="SourceGraphic" in2="effect1_dropShadow_27_966" result="shape"/>
</filter>
</defs>
</svg>
