<svg width="17" height="17" viewBox="0 0 17 17" fill="none" xmlns="http://www.w3.org/2000/svg">
<path fill-rule="evenodd" clip-rule="evenodd" d="M2.52343 0.599078C1.58712 0.84035 0.83342 1.59868 0.597332 2.53704C0.532647 2.79416 0.531245 2.91924 0.531245 8.5C0.531245 14.9818 0.506042 14.4103 0.81965 15.041C1.14018 15.6856 1.81755 16.2227 2.53703 16.403C2.94843 16.506 14.0516 16.506 14.463 16.403C15.3965 16.1691 16.1691 15.3965 16.403 14.463C16.506 14.0516 16.506 2.94844 16.403 2.53704C16.1691 1.60348 15.3965 0.830873 14.463 0.597038C14.0574 0.49542 2.91826 0.497333 2.52343 0.599078ZM14.2913 1.68525C14.806 1.88113 15.1752 2.26797 15.3289 2.77244C15.4233 3.0821 15.4233 13.9179 15.3289 14.2276C15.1667 14.7599 14.7385 15.1847 14.2202 15.3276C13.8697 15.4242 3.13025 15.4242 2.77979 15.3276C2.2615 15.1847 1.83332 14.7599 1.67105 14.2276C1.5767 13.9179 1.5767 3.0821 1.67105 2.77244C1.8606 2.15063 2.36784 1.71555 3.00487 1.62847C3.11444 1.61347 5.65449 1.60331 8.64943 1.60586L14.0947 1.61045L14.2913 1.68525ZM4.07132 2.95558C3.63995 3.08771 3.58869 3.76992 3.99567 3.96304C4.16835 4.04498 6.9867 4.04553 7.1592 3.96368C7.5171 3.79385 7.53669 3.2617 7.1944 3.00794C7.09269 2.93258 4.29929 2.88571 4.07132 2.95558ZM6.32353 5.49202C5.91179 5.67137 5.90316 6.2588 6.30925 6.46629L6.45549 6.541H9.29687H12.1383L12.2864 6.46629C12.6794 6.26815 12.6661 5.65909 12.2652 5.49159C12.1052 5.4247 6.47716 5.42512 6.32353 5.49202ZM8.73081 8.04355C8.40509 8.26306 8.40509 8.73694 8.73081 8.95645L8.84187 9.03125L10.8872 9.03112C12.8696 9.03099 12.9359 9.02895 13.0408 8.96503C13.3684 8.76528 13.3684 8.23471 13.0408 8.03496C12.9359 7.97104 12.8696 7.969 10.8872 7.96888L8.84187 7.96875L8.73081 8.04355ZM5.06017 10.5219C4.68154 10.6948 4.6452 11.2097 4.99323 11.4696C5.13901 11.5785 9.63305 11.5944 9.82242 11.4867C10.1791 11.2839 10.1937 10.7993 9.8506 10.5451C9.71074 10.4414 5.2833 10.42 5.06017 10.5219ZM8.25099 13.029C7.81383 13.222 7.87235 13.9206 8.33616 14.0455C8.61657 14.121 12.9303 14.072 13.0381 13.9921C13.3828 13.7366 13.3641 13.2077 13.0043 13.037C12.8482 12.9629 8.41759 12.9554 8.25099 13.029Z" fill="white"/>
</svg>
