<svg width="13" height="13" viewBox="0 0 13 13" fill="none" xmlns="http://www.w3.org/2000/svg">
<path fill-rule="evenodd" clip-rule="evenodd" d="M0.908113 0.357221C0.465993 0.624601 0.410285 0.969575 0.816179 1.35418L0.926408 1.45861H6.35661H11.7868L11.897 1.35418C12.2589 1.01129 12.259 0.766153 11.8971 0.423264L11.7869 0.318825L6.39376 0.310002C1.939 0.302729 0.984555 0.310964 0.908113 0.357221ZM0.908113 5.70483C0.465993 5.97221 0.391975 6.34986 0.797869 6.73446L0.908098 6.8389H6.3383H11.7685L11.8787 6.73446C12.2406 6.39157 12.259 6.11376 11.8971 5.77087L11.7869 5.66643L6.39376 5.65761C1.939 5.65034 0.984555 5.65857 0.908113 5.70483ZM0.908113 11.0524C0.465993 11.3198 0.502186 11.6648 0.90808 12.0494L1.01831 12.1538H6.44851H11.8787L11.9889 12.0494C12.3508 11.7065 12.259 11.4614 11.8971 11.1185L11.7869 11.014L6.39376 11.0052C1.939 10.9979 0.984555 11.0062 0.908113 11.0524Z" fill="#ffffff"/>
</svg>
