<svg width="19" height="19" viewBox="0 0 19 19" fill="none" xmlns="http://www.w3.org/2000/svg">
<g clip-path="url(#clip0_11_299)">
<path fill-rule="evenodd" clip-rule="evenodd" d="M6.71681 0.0236951C6.6658 0.0312001 6.49879 0.0553301 6.34574 0.0773226C1.74119 0.738475 -1.19004 5.71671 0.442397 10.1032C2.19785 14.8201 8.00625 16.5725 11.9864 13.5859L12.2276 13.4049L14.9736 16.141C16.7255 17.8865 17.7688 18.8994 17.8552 18.9386C18.3804 19.1766 18.9614 18.8307 18.9936 18.2608C19.017 17.8451 19.1175 17.9607 16.1391 14.9736L13.4009 12.2275L13.4922 12.1162C16.0332 9.01587 15.3781 4.02433 12.1048 1.54545C10.5745 0.3865 8.40995 -0.224825 6.71681 0.0236951ZM8.47137 1.68914C12.3401 2.30341 14.5797 6.61746 12.8378 10.1001C10.6223 14.5294 4.42465 14.5318 2.21225 10.1042C0.0934142 5.86382 3.75547 0.940398 8.47137 1.68914Z" fill="white"/>
</g>
<defs>
<clipPath id="clip0_11_299">
<rect width="19" height="19" fill="white"/>
</clipPath>
</defs>
</svg>
