<svg width="18" height="17" viewBox="0 0 18 17" fill="none" xmlns="http://www.w3.org/2000/svg">
<path fill-rule="evenodd" clip-rule="evenodd" d="M5.34429 0.591935C5.1522 0.664535 1.15634 4.63974 1.05214 4.86185C0.820438 5.35588 1.15078 5.92505 1.6891 5.95934C2.10181 5.98561 2.0673 6.01192 3.52543 4.55986L4.85564 3.23526V9.34368C4.85564 15.3507 4.85684 15.4544 4.92699 15.5919C5.1965 16.1202 5.93812 16.164 6.28388 15.672L6.39397 15.5154L6.40333 9.37519L6.41268 3.23493L7.74257 4.56005C9.19565 6.00794 9.16869 5.98718 9.56514 5.9585C10.1015 5.91972 10.4347 5.30686 10.1827 4.8227C10.0906 4.64558 6.15305 0.712488 5.98269 0.627332C5.81168 0.541897 5.51952 0.525681 5.34429 0.591935ZM13.0996 0.587904C12.8966 0.660366 12.793 0.73936 12.683 0.905642L12.5835 1.05594L12.5742 7.19286L12.5648 13.3298L11.2349 12.0047C9.78183 10.5568 9.8088 10.5776 9.41234 10.6062C8.87601 10.645 8.54275 11.2579 8.79475 11.7421C8.88542 11.9163 12.823 15.8517 12.9901 15.935C13.1772 16.0283 13.4032 16.0444 13.6018 15.9785C13.821 15.9057 17.8382 11.9217 17.9393 11.6769C18.1428 11.1839 17.8118 10.6388 17.2888 10.6055C16.8756 10.5791 16.9104 10.5527 15.4521 12.0049L14.1218 13.3295V7.22107C14.1218 1.28143 14.1199 1.10894 14.0528 0.978382C13.8686 0.620428 13.4682 0.45637 13.0996 0.587904Z" fill="white"/>
</svg>
