<svg width="8" height="13" viewBox="0 0 8 13" fill="none" xmlns="http://www.w3.org/2000/svg">
<path d="M7.48023 12.892C7.86971 12.6882 8.04788 12.2545 7.92357 11.8122C7.878 11.6518 7.80342 11.5391 7.64182 11.3743C7.52166 11.2529 6.26207 10.1168 4.84089 8.84626C3.42384 7.57574 2.26369 6.52636 2.26784 6.50902C2.26784 6.49167 3.41556 5.45531 4.81603 4.20214C8.03544 1.3272 7.88214 1.47464 7.96086 1.19712C8.18461 0.412256 7.40565 -0.272871 6.72613 0.108719C6.48167 0.247479 0.30801 5.7892 0.167134 5.99734C-0.0980432 6.3876 -0.0441792 6.84725 0.303866 7.20282C0.411595 7.31122 1.88664 8.63812 3.57715 10.1515C5.88088 12.2155 6.68884 12.9137 6.81314 12.9527C7.06175 13.0307 7.23991 13.0134 7.48023 12.892Z" fill="white"/>
</svg>
