<svg width="25" height="25" viewBox="0 0 25 25" fill="none" xmlns="http://www.w3.org/2000/svg">
<path d="M5.77148 0.0537109C5.55176 0.117188 5.24414 0.444336 5.18066 0.668945C5.15137 0.771484 5.12695 1.09863 5.12695 1.39648V1.94336L4.18945 1.96289C3.34473 1.98242 3.20312 2.00195 2.80762 2.11914C1.55762 2.49512 0.551758 3.49121 0.161133 4.76074L0.0244141 5.2002V13.4766V21.7529L0.161133 22.1924C0.551758 23.457 1.54297 24.4482 2.80762 24.8389L3.24707 24.9756H7.47559H11.6992L11.8994 24.8438C12.2021 24.6436 12.3291 24.4043 12.3291 24.0234C12.3291 23.6426 12.2021 23.4033 11.8994 23.2031L11.6992 23.0713L7.59766 23.0469L3.49121 23.0225L3.20801 22.9102C2.66602 22.6904 2.25586 22.2607 2.06543 21.709C1.98242 21.4746 1.97754 21.0352 1.97754 13.4766C1.97754 5.91797 1.98242 5.47852 2.06543 5.24414C2.25586 4.69238 2.6709 4.25781 3.20801 4.04785C3.45215 3.95508 3.6084 3.93555 4.30176 3.91602L5.11719 3.89648L5.13184 4.55078C5.15137 5.13184 5.16113 5.21973 5.26855 5.38574C5.33203 5.48828 5.47363 5.62988 5.58105 5.70312C5.74707 5.81543 5.83496 5.83496 6.10352 5.83496C6.37207 5.83496 6.45996 5.81543 6.62598 5.70312C6.7334 5.62988 6.875 5.48828 6.93848 5.38574C7.0459 5.21973 7.05566 5.13184 7.07031 4.55078L7.08984 3.90625H9.27734H11.4648L11.4844 4.55566C11.499 5.16602 11.5088 5.21973 11.6309 5.40527C11.8311 5.71289 12.0703 5.83496 12.4561 5.83496C12.7197 5.83496 12.8076 5.81055 12.9736 5.70312C13.0811 5.62988 13.2227 5.48828 13.2861 5.38574C13.3936 5.21973 13.4033 5.13184 13.418 4.55078L13.4375 3.90625H15.6494H17.8613L17.8809 4.55566C17.8955 5.16602 17.9053 5.21973 18.0273 5.40527C18.2275 5.71289 18.4668 5.83496 18.8525 5.83496C19.1162 5.83496 19.2041 5.81055 19.3701 5.70312C19.4775 5.62988 19.6191 5.48828 19.6826 5.38574C19.79 5.21973 19.7998 5.13184 19.8193 4.55078L19.834 3.89648L20.6738 3.91602C21.3818 3.93555 21.5479 3.9502 21.7725 4.04297C22.3145 4.25781 22.6953 4.63379 22.9102 5.16113L23.0225 5.44434L23.0469 8.59375L23.0713 11.7432L23.1885 11.9287C23.252 12.0312 23.3936 12.1729 23.501 12.2461C23.667 12.3535 23.7549 12.3779 24.0186 12.3779C24.4043 12.3779 24.6436 12.2559 24.8438 11.9482L24.9756 11.748V8.47656V5.2002L24.8389 4.76074C24.4482 3.49609 23.4424 2.49512 22.1924 2.11914C21.7969 2.00195 21.6553 1.98242 20.791 1.96289L19.834 1.94336L19.8145 1.29883C19.7998 0.693359 19.79 0.639648 19.668 0.454102C19.4678 0.151367 19.2285 0.0244141 18.8477 0.0244141C18.4668 0.0244141 18.2275 0.151367 18.0273 0.454102C17.9053 0.639648 17.8955 0.693359 17.8809 1.30371L17.8613 1.95312H15.6494H13.4375L13.418 1.30371C13.4033 0.727539 13.3936 0.639648 13.2861 0.473633C13.2227 0.371094 13.0811 0.229492 12.9736 0.15625C12.8076 0.0488281 12.7197 0.0244141 12.4561 0.0244141C12.0703 0.0244141 11.8311 0.146484 11.6309 0.454102C11.5088 0.639648 11.499 0.693359 11.4844 1.30371L11.4648 1.95312H9.27734H7.08984L7.07031 1.30371C7.05566 0.693359 7.0459 0.639648 6.92383 0.454102C6.85059 0.34668 6.71387 0.209961 6.62109 0.151367C6.4209 0.0244141 6.01074 -0.0195312 5.77148 0.0537109Z" fill="white"/>
<path d="M5.77138 9.33105C5.53701 9.39941 5.23916 9.72168 5.1708 9.9707C5.05849 10.4053 5.22939 10.8594 5.60048 11.0889C5.8788 11.2646 6.35244 11.2549 6.62587 11.0742C6.92861 10.874 7.05556 10.6348 7.05556 10.2539C7.05556 9.87793 6.92861 9.63378 6.64052 9.44336C6.43056 9.30175 6.03017 9.25293 5.77138 9.33105Z" fill="white"/>
<path d="M10.0194 9.33105C9.78505 9.39941 9.4872 9.72168 9.41884 9.9707C9.30654 10.4053 9.47744 10.8594 9.84853 11.0889C10.1269 11.2646 10.6005 11.2549 10.8739 11.0742C11.1767 10.874 11.3036 10.6348 11.3036 10.2539C11.3036 9.87793 11.1767 9.63378 10.8886 9.44336C10.6786 9.30175 10.2782 9.25293 10.0194 9.33105Z" fill="white"/>
<path d="M14.2675 9.33105C14.0331 9.39941 13.7352 9.72168 13.6669 9.9707C13.5546 10.4053 13.7255 10.8594 14.0966 11.0889C14.3749 11.2646 14.8485 11.2549 15.122 11.0742C15.4247 10.874 15.5517 10.6348 15.5517 10.2539C15.5517 9.87793 15.4247 9.63378 15.1366 9.44336C14.9267 9.30175 14.5263 9.25293 14.2675 9.33105Z" fill="white"/>
<path d="M18.5155 9.33105C18.2811 9.39941 17.9833 9.72168 17.9149 9.9707C17.8026 10.4053 17.9735 10.8594 18.3446 11.0889C18.6229 11.2646 19.0966 11.2549 19.37 11.0742C19.6727 10.874 19.7997 10.6348 19.7997 10.2539C19.7997 9.87793 19.6727 9.63378 19.3847 9.44336C19.1747 9.30175 18.7743 9.25293 18.5155 9.33105Z" fill="white"/>
<path d="M18.2373 13.2568C16.9482 13.457 15.7715 14.0576 14.8828 14.9707C14.4141 15.4443 14.0918 15.9082 13.7891 16.5283C12.9883 18.1738 12.9883 20.0098 13.7891 21.6553C14.3896 22.8809 15.3076 23.7988 16.5234 24.3896C18.1787 25.1953 20.0049 25.1953 21.6602 24.3896C22.876 23.7988 23.7939 22.8809 24.3945 21.6553C25.1953 20.0098 25.1953 18.1738 24.3945 16.5283C23.7939 15.3027 22.876 14.3848 21.6602 13.7939C20.5762 13.2666 19.3701 13.0762 18.2373 13.2568ZM19.7852 15.2051C21.6895 15.5811 23.0469 17.1924 23.0469 19.0918C23.0469 20.9912 21.6895 22.6025 19.7852 22.9785C18.4326 23.2422 16.9287 22.6904 16.0498 21.6064C14.8389 20.1123 14.8389 18.0713 16.0498 16.5771C16.9287 15.498 18.4326 14.9414 19.7852 15.2051Z" fill="white"/>
<path d="M18.7598 16.167C18.5303 16.2354 18.2276 16.5576 18.1641 16.7969C18.1299 16.9287 18.1153 17.4268 18.125 18.208L18.1397 19.4189L18.2715 19.6143C18.3448 19.7217 18.4864 19.8633 18.5889 19.9268C18.7696 20.0391 18.8038 20.0439 19.7998 20.0439C20.7959 20.0439 20.8301 20.0391 21.0108 19.9268C21.1133 19.8633 21.2549 19.7217 21.3282 19.6143C21.5088 19.3408 21.5186 18.8672 21.3428 18.5889C21.1524 18.2812 20.9082 18.1494 20.459 18.125L20.0782 18.1055L20.0586 17.4365C20.044 16.8408 20.0342 16.7529 19.9268 16.5869C19.6973 16.2158 19.1895 16.0352 18.7598 16.167Z" fill="white"/>
<path d="M5.77138 13.5791C5.53701 13.6475 5.23916 13.9697 5.1708 14.2187C5.05849 14.6533 5.22939 15.1074 5.60048 15.3369C5.8788 15.5127 6.35244 15.5029 6.62587 15.3223C6.92861 15.1221 7.05556 14.8828 7.05556 14.5019C7.05556 14.126 6.92861 13.8818 6.64052 13.6914C6.43056 13.5498 6.03017 13.501 5.77138 13.5791Z" fill="white"/>
<path d="M10.0194 13.5791C9.78505 13.6475 9.4872 13.9697 9.41884 14.2187C9.30654 14.6533 9.47744 15.1074 9.84853 15.3369C10.1269 15.5127 10.6005 15.5029 10.8739 15.3223C11.1767 15.1221 11.3036 14.8828 11.3036 14.5019C11.3036 14.126 11.1767 13.8818 10.8886 13.6914C10.6786 13.5498 10.2782 13.501 10.0194 13.5791Z" fill="white"/>
<path d="M5.77138 17.8271C5.53701 17.8955 5.23916 18.2178 5.1708 18.4668C5.05849 18.9014 5.22939 19.3555 5.60048 19.585C5.8788 19.7607 6.35244 19.751 6.62587 19.5703C6.92861 19.3701 7.05556 19.1309 7.05556 18.75C7.05556 18.374 6.92861 18.1299 6.64052 17.9394C6.43056 17.7978 6.03017 17.749 5.77138 17.8271Z" fill="white"/>
<path d="M10.0194 17.8271C9.78505 17.8955 9.4872 18.2178 9.41884 18.4668C9.30654 18.9014 9.47744 19.3555 9.84853 19.585C10.1269 19.7607 10.6005 19.751 10.8739 19.5703C11.1767 19.3701 11.3036 19.1309 11.3036 18.75C11.3036 18.374 11.1767 18.1299 10.8886 17.9394C10.6786 17.7978 10.2782 17.749 10.0194 17.8271Z" fill="white"/>
</svg>
