<svg width="28" height="28" viewBox="0 0 28 28" fill="none" xmlns="http://www.w3.org/2000/svg">
<path fill-rule="evenodd" clip-rule="evenodd" d="M1.26343 0.167779C0.561619 0.391235 -0.00470839 1.25362 3.12363e-05 2.09149C0.00453966 2.8778 0.100258 2.98728 5.62319 8.51576L10.8787 13.7765L5.62319 19.0373C0.0788717 24.5871 0.00442406 24.6726 3.12363e-05 25.4812C-0.0078296 26.9455 1.46943 27.9149 2.7978 27.3173C3.10819 27.1776 4.4473 25.8925 8.46489 21.879L13.7256 16.6234L18.9864 21.879C23.004 25.8925 24.3431 27.1776 24.6535 27.3173C25.9649 27.9073 27.4493 26.9516 27.4493 25.5173C27.4493 24.6698 27.4116 24.6264 21.8281 19.0373L16.5725 13.7765L21.8281 8.51576C25.8416 4.49818 27.1268 3.15906 27.2664 2.84867C27.8641 1.52031 26.8946 0.0430462 25.4303 0.0509071C24.6217 0.0552999 24.5363 0.129747 18.9864 5.67407L13.7256 10.9296L8.46489 5.67407C2.42845 -0.356238 2.56972 -0.248267 1.26343 0.167779Z" fill="white"/>
</svg>
