<svg width="22" height="25" viewBox="0 0 22 25" fill="none" xmlns="http://www.w3.org/2000/svg">
<path opacity="0.985" fill-rule="evenodd" clip-rule="evenodd" d="M3.15104 0.0033251C8.38371 -0.00554161 13.6163 0.0033251 18.8489 0.0299199C20.5636 0.309767 21.6044 1.24059 21.9713 2.82238C22.0096 9.94979 22.0096 17.0772 21.9713 24.2046C21.6905 24.8273 21.1844 25.0843 20.4531 24.9759C20.3128 24.9373 20.1791 24.8841 20.0521 24.8163C17.0443 23.0566 14.027 21.3102 11 19.5771C7.91387 21.3695 4.82012 23.1514 1.71875 24.9227C0.923606 25.134 0.36024 24.8946 0.0286472 24.2046C-0.00954908 17.0772 -0.00954908 9.94979 0.0286472 2.82238C0.408239 1.24276 1.44903 0.303075 3.15104 0.0033251ZM3.66667 2.29048C8.55559 2.28161 13.4445 2.29048 18.3333 2.31708C18.9529 2.37809 19.3444 2.68836 19.5078 3.24789C19.546 9.41789 19.546 15.5879 19.5078 21.7579C16.7991 20.1415 14.0586 18.5724 11.2865 17.0506C10.8918 16.9791 10.5289 17.0501 10.1979 17.2634C7.62449 18.7549 5.05593 20.253 2.49219 21.7579C2.45397 15.5879 2.45397 9.41789 2.49219 3.24789C2.66521 2.68784 3.05668 2.3687 3.66667 2.29048Z" fill="white"/>
</svg>
