<svg width="24" height="24" viewBox="0 0 24 24" fill="none" xmlns="http://www.w3.org/2000/svg">
<g clip-path="url(#clip0_10_133)">
<path fill-rule="evenodd" clip-rule="evenodd" d="M2.5856 0.0498327C1.37486 0.209133 0.3476 1.12779 0.0728601 2.29683C-0.0356799 2.75871 -0.0356799 21.2412 0.0728601 21.7031C0.31712 22.7424 1.17278 23.6037 2.2499 23.8943C2.64812 24.0018 12.0337 24.0228 12.3319 23.9169C13.0999 23.6441 13.1914 22.5098 12.4791 22.0911L12.2577 21.9609L7.47644 21.9375C2.1542 21.9114 2.5661 21.9389 2.25944 21.5896C2.00654 21.3016 2.01602 21.6757 2.01602 12C2.01602 2.32425 2.00654 2.69835 2.25944 2.41035C2.5661 2.06109 2.1542 2.08857 7.47644 2.06247L12.2577 2.03901L12.4791 1.90887C13.1774 1.49841 13.1164 0.440013 12.3749 0.0988527C12.1912 0.0143727 3.19748 -0.0306273 2.5856 0.0498327ZM16.5234 5.10471C16.0174 5.33973 15.7944 5.93973 16.025 6.44529C16.0841 6.57483 16.7873 7.30251 18.3004 8.79987L20.4903 10.967L14.5927 10.9796L8.69522 10.9922L8.50772 11.0931C7.77416 11.4878 7.77416 12.5121 8.50772 12.9069L8.69522 13.0078L14.5927 13.0204L20.4903 13.033L18.3004 15.2001C15.9795 17.4968 15.9394 17.5439 15.9394 17.9765C15.9394 18.7205 16.6968 19.2014 17.38 18.8913C17.6727 18.7585 23.8224 12.6761 23.9261 12.4169C24.0205 12.1811 24.0205 11.8189 23.9261 11.5831C23.8224 11.3239 17.6727 5.24145 17.38 5.10861C17.126 4.99335 16.7667 4.99173 16.5234 5.10471Z" fill="white"/>
</g>
<defs>
<clipPath id="clip0_10_133">
<rect width="24" height="24" fill="white"/>
</clipPath>
</defs>
</svg>
