<svg width="26" height="26" viewBox="0 0 26 26" fill="none" xmlns="http://www.w3.org/2000/svg">
<g clip-path="url(#clip0_54_2)">
<path d="M11.8829 0.0558642C9.36412 0.258989 6.79459 1.3 4.79889 2.91993C4.17936 3.42266 3.10279 4.53477 2.63561 5.1543C1.41178 6.78946 0.589123 8.63789 0.228576 10.5828C-0.396033 13.9699 0.304748 17.4129 2.19381 20.2211C3.17389 21.6836 4.66686 23.1309 6.13951 24.0398C8.89694 25.7461 12.1622 26.3555 15.3665 25.7715C18.7942 25.1367 21.8055 23.1563 23.7809 20.2262C26.3301 16.4531 26.6856 11.5121 24.7001 7.38868L24.436 6.83008L25.1622 6.09375C25.5633 5.6875 25.9137 5.29141 25.9442 5.21524C26.061 4.91055 25.9848 4.61094 25.736 4.38243C25.6751 4.32149 25.0251 4.01172 24.2989 3.69688L22.9786 3.11797L22.6333 2.12774C22.0747 0.517974 22.029 0.406255 21.902 0.248833C21.7497 0.0710986 21.4551 -0.0253858 21.1911 0.0253955C21.0286 0.0558642 20.8712 0.182817 20.1805 0.868364L19.363 1.68086L18.8094 1.40157C16.6715 0.335161 14.2645 -0.137105 11.8829 0.0558642ZM14.5489 1.6504C15.7676 1.83321 17.0422 2.21915 17.9462 2.67618L18.2305 2.81836L17.1946 3.8543L16.1637 4.88516L15.6864 4.73282C13.3962 4.00157 10.8622 4.25039 8.7649 5.41836C7.46998 6.14454 6.22584 7.36329 5.47428 8.65313C4.31647 10.6285 4.0067 13.1828 4.65162 15.4273C5.03756 16.7781 5.78912 18.0477 6.8149 19.0887C8.4653 20.7594 10.6692 21.6836 13.0001 21.6836C15.8032 21.6836 18.4286 20.3176 20.084 18.002C20.4801 17.4484 21.0184 16.3922 21.2266 15.7574C21.7801 14.0766 21.8208 12.1723 21.3282 10.527L21.1911 10.0648L22.2422 9.01368L23.2934 7.9625L23.4305 8.25196C23.8469 9.16602 24.2024 10.3949 24.3547 11.4563C24.4563 12.1672 24.4715 13.7109 24.3801 14.3711C24.0755 16.5902 23.2223 18.6012 21.8817 20.2414C18.5301 24.3445 12.8071 25.6242 8.04889 23.3391C2.82858 20.8356 0.294592 14.8688 2.11256 9.38438C2.67115 7.70352 3.58522 6.22071 4.84967 4.9461C5.80944 3.97618 6.64733 3.37188 7.84576 2.76251C9.20162 2.07696 10.5219 1.71133 12.1876 1.55391C12.6141 1.51329 14.036 1.57422 14.5489 1.6504ZM21.2774 2.86915L21.4856 3.47344L19.6626 5.29649L17.8395 7.11954L17.6821 6.38829L17.5247 5.66211L19.2614 3.9254C20.2161 2.96563 21.0133 2.20391 21.0286 2.22422C21.0489 2.24454 21.1606 2.53399 21.2774 2.86915ZM23.1969 4.88008C23.5219 5.02227 23.8114 5.15938 23.8419 5.18477C23.8977 5.24063 20.5309 8.63282 20.4192 8.63282C20.3176 8.63282 18.9719 8.26719 18.9262 8.22657C18.8856 8.19102 22.486 4.6211 22.5622 4.6211C22.5876 4.6211 22.8719 4.7379 23.1969 4.88008ZM14.4016 5.96172C14.8485 6.05313 15.6102 6.30196 15.9301 6.46954L16.1739 6.59141L16.3669 7.49532L16.5649 8.4043L16.0723 8.87657L15.5848 9.34883L15.4477 9.25235C15.1837 9.06446 14.5743 8.78516 14.1833 8.67344C13.843 8.57188 13.6704 8.55664 12.9493 8.55664C12.1165 8.55664 12.1063 8.55664 11.5883 8.73946C9.69928 9.40469 8.51608 11.0449 8.51608 13C8.51608 14.7164 9.46061 16.25 10.9942 17.0219C11.5426 17.3012 12.0657 17.4281 12.7665 17.4586C14.1731 17.5145 15.1837 17.1234 16.1485 16.1535C16.829 15.468 17.22 14.7469 17.3977 13.8684C17.4993 13.3504 17.4739 12.3906 17.3419 11.8828C17.2454 11.5273 16.9305 10.8012 16.763 10.5727L16.6614 10.4254L17.1387 9.95313L17.6161 9.47579L18.5606 9.72969L19.5001 9.97852L19.6575 10.3543C20.013 11.2125 20.1958 12.3449 20.1399 13.3504C19.952 16.6715 17.6313 19.3527 14.3458 20.0383C13.7212 20.1703 12.3044 20.1703 11.6645 20.0434C9.09498 19.5254 7.01295 17.7023 6.20045 15.2598C5.92115 14.4219 5.86529 14.0309 5.86529 13C5.86529 12.284 5.88561 11.959 5.9567 11.6289C6.43912 9.36914 7.82545 7.58164 9.87701 6.56094C10.5473 6.22579 11.3954 5.97696 12.2383 5.87032C12.5837 5.82969 14.0462 5.89063 14.4016 5.96172ZM13.6602 10.1106C13.7872 10.141 14.0208 10.2223 14.1833 10.2934L14.4778 10.4254L13.3911 11.5223C12.1419 12.7766 12.0911 12.8578 12.2688 13.2945C12.4008 13.6145 12.6243 13.7617 12.9797 13.7617C13.3149 13.7617 13.2997 13.7719 14.5794 12.5074L15.5747 11.5223L15.7016 11.8168C16.2653 13.0813 15.8438 14.6047 14.7114 15.407C14.2087 15.7574 13.7821 15.9047 13.1575 15.9352C12.8376 15.9504 12.5227 15.9352 12.345 15.8945C11.3497 15.6813 10.4559 14.8434 10.1462 13.843C10.0192 13.4266 9.99889 12.7613 10.1005 12.3398C10.3544 11.2887 11.2126 10.4051 12.2383 10.1359C12.5684 10.0496 13.3352 10.0344 13.6602 10.1106Z" fill="white"/>
</g>
<defs>
<clipPath id="clip0_54_2">
<rect width="26" height="26" fill="white"/>
</clipPath>
</defs>
</svg>
