<svg width="25" height="25" viewBox="0 0 25 25" fill="none" xmlns="http://www.w3.org/2000/svg">
<g clip-path="url(#clip0_5_81)">
<path d="M3.17871 0.0732422C2.45117 0.234375 1.93848 0.478516 1.40625 0.927734C0.834961 1.40137 0.385742 2.08496 0.161133 2.80762L0.0244141 3.24707V12.5V21.7529L0.161133 22.1924C0.551758 23.457 1.54297 24.4482 2.80762 24.8389L3.24707 24.9756H6.88965H10.5273L10.7275 24.8438C11.0303 24.6436 11.1572 24.4043 11.1572 24.0234C11.1572 23.6426 11.0303 23.4033 10.7275 23.2031L10.5273 23.0713L7.01172 23.0469L3.49121 23.0225L3.20801 22.9102C2.66602 22.6904 2.25586 22.2607 2.06543 21.709C1.98242 21.4746 1.97754 20.9961 1.97754 12.5C1.97754 4.00391 1.98242 3.52539 2.06543 3.29102C2.25586 2.73926 2.66602 2.30957 3.20801 2.08984L3.49121 1.97754H9.91211H16.333L16.6113 2.08984C17.1191 2.29492 17.5293 2.70508 17.7344 3.21289L17.8467 3.49121L17.8711 7.61719L17.8955 11.7432L18.0127 11.9287C18.1738 12.1924 18.4424 12.3535 18.7549 12.3877C18.9795 12.4072 19.0576 12.3926 19.2871 12.2705C19.502 12.1582 19.5801 12.0801 19.6875 11.8701L19.8242 11.6113V7.59766C19.8242 3.85742 19.8145 3.55957 19.7314 3.13965C19.5605 2.3291 19.1943 1.66504 18.5889 1.08887C18.0078 0.541992 17.4365 0.244141 16.6357 0.078125C16.3086 0.00976562 15.5176 0 9.87793 0.00488281C4.62402 0.00488281 3.4375 0.0195312 3.17871 0.0732422Z" fill="white"/>
<path d="M9.0332 3.69627C8.71582 3.81346 8.58398 3.9453 7.54395 5.20506C6.93359 5.94237 6.42578 6.54295 6.41113 6.54295C6.39648 6.54295 6.16211 6.31346 5.88867 6.03514C5.4834 5.61522 5.35645 5.51756 5.17578 5.46873C4.74121 5.35155 4.30664 5.51756 4.05273 5.89354C3.95508 6.04002 3.93066 6.1328 3.93066 6.39159C3.93066 6.80174 4.02344 6.93846 4.84375 7.74901C5.60059 8.49608 5.8252 8.61815 6.44531 8.61327C6.79199 8.61327 6.9043 8.58885 7.12891 8.48143C7.48535 8.31053 7.74414 8.03709 9.04297 6.45995C10.2979 4.94139 10.3467 4.84373 10.1953 4.32616C10.0586 3.87694 9.44824 3.54491 9.0332 3.69627Z" fill="white"/>
<path d="M11.7285 6.35254C11.499 6.4209 11.1963 6.74316 11.128 6.99219C11.0156 7.42676 11.1865 7.88086 11.5576 8.11035L11.7432 8.22754H13.5059H15.2637L15.4639 8.0957C15.7666 7.89551 15.8936 7.65625 15.8936 7.27539C15.8936 6.89453 15.7666 6.65527 15.4639 6.45508L15.2686 6.32324L13.5791 6.31348C12.5977 6.30859 11.8213 6.32324 11.7285 6.35254Z" fill="white"/>
<path d="M8.85257 9.77051C8.68655 9.84863 8.40823 10.1611 7.53909 11.2109C6.92874 11.9482 6.42581 12.5488 6.42093 12.5488C6.41116 12.5488 6.17679 12.3193 5.89847 12.041C5.48831 11.6309 5.35159 11.5234 5.17581 11.4746C4.40921 11.2695 3.75003 11.9287 3.95511 12.6904C3.99905 12.8662 4.13089 13.0273 4.69729 13.6084C5.56644 14.4873 5.80081 14.624 6.44534 14.624C6.79202 14.6191 6.90433 14.5996 7.12894 14.4873C7.48538 14.3164 7.69534 14.0918 9.02347 12.4805C9.87796 11.4453 10.1612 11.0693 10.2051 10.9082C10.4346 10.1025 9.59964 9.39941 8.85257 9.77051Z" fill="white"/>
<path d="M11.7285 12.3584C11.499 12.4268 11.1963 12.749 11.128 12.998C11.0156 13.4326 11.1865 13.8867 11.5576 14.1162L11.7432 14.2334H13.5059H15.2637L15.4639 14.1016C15.7666 13.9014 15.8936 13.6621 15.8936 13.2812C15.8936 12.9004 15.7666 12.6611 15.4639 12.4609L15.2686 12.3291L13.5791 12.3193C12.5977 12.3145 11.8213 12.3291 11.7285 12.3584Z" fill="white"/>
<path d="M21.4355 13.3594C21.2598 13.3936 20.9521 13.5059 20.752 13.6035C20.4102 13.7744 20.2148 13.9551 17.5146 16.6211C15.9326 18.1836 14.5898 19.5459 14.5215 19.6582C14.3896 19.8828 13.1836 23.8086 13.1836 24.0186C13.1836 24.1992 13.2764 24.4531 13.3984 24.624C13.5205 24.79 13.9307 25 14.1357 25C14.3359 25 18.3301 23.8965 18.5547 23.7793C18.6475 23.7305 20.0244 22.3877 21.6113 20.791C24.3652 18.0273 24.5068 17.8809 24.6777 17.5293C25.249 16.3525 25.0391 15.0684 24.126 14.1553C23.3984 13.4277 22.4316 13.1445 21.4355 13.3594ZM22.583 15.3955C23.1006 15.7471 23.1885 16.3525 22.793 16.8506L22.5977 17.0996L21.8945 16.4014C21.333 15.8398 21.2061 15.6885 21.25 15.6348C21.333 15.5371 21.6895 15.2979 21.8018 15.2686C22.0068 15.21 22.4023 15.2734 22.583 15.3955ZM19.4043 20.2686L17.6172 22.0557L16.6357 22.3291C16.0938 22.4756 15.6445 22.5928 15.6348 22.583C15.625 22.5781 15.7471 22.1533 15.8984 21.6504L16.1768 20.7275L17.9883 18.9111L19.7998 17.0898L20.4932 17.7832L21.1914 18.4814L19.4043 20.2686Z" fill="white"/>
<path d="M8.85257 15.6787C8.68655 15.7568 8.40823 16.0693 7.53909 17.1191C6.92874 17.8564 6.42581 18.457 6.42093 18.457C6.41116 18.457 6.17679 18.2275 5.89847 17.9492C5.48831 17.5391 5.35159 17.4316 5.17581 17.3828C4.40921 17.1777 3.75003 17.8369 3.95511 18.5986C3.99905 18.7744 4.13089 18.9355 4.69729 19.5166C5.56644 20.3955 5.80081 20.5322 6.44534 20.5322C6.79202 20.5273 6.90433 20.5078 7.12894 20.3955C7.48538 20.2246 7.69534 20 9.02347 18.3887C9.87796 17.3535 10.1612 16.9775 10.2051 16.8164C10.4346 16.0107 9.59964 15.3076 8.85257 15.6787Z" fill="white"/>
</g>
<defs>
<clipPath id="clip0_5_81">
<rect width="25" height="25" fill="white"/>
</clipPath>
</defs>
</svg>
